<svg version="1.1" xmlns="http://www.w3.org/2000/svg" viewBox="0 0 512 512">
  <style type="text/css">
    svg {height: 300px;}
    .st0{fill:#010101;}
    .st1{fill:#DFDFDF;}
    .st2{fill:#A8A8A8;}
    .st3{fill:#0E0E0E;}
    .st4{fill:#101010;}
    .st5{fill:#191919;}
    .st6{fill:#383838;}
    .st7{fill:#393939;}
    .st8{fill:#939393;}
    .st9{fill:#707070;}
    .st10{fill:#4A4A4A;}
    .st11{fill:#414141;}
    .st12{fill:#4B4B4B;}
  </style>
  <g>
    <path class="st0" d="M512.23,150.61c0,1.79,0,3.59,0,5.38c-2.54,8.53-8.32,13.75-16.55,16.79c-5.84,2.16-11.48,4.87-17.21,7.33c-0.54,0.25-1.07,0.49-1.61,0.74c-5.9,2.36-11.8,4.71-17.7,7.07c-14.38,5.75-28.75,11.5-43.13,17.26c-4.11,1.82-8.18,3.72-12.33,5.43c-11.24,4.63-22.51,9.23-33.8,13.75c-5.01,2.01-10.11,3.8-15.16,5.69c-7.31,3.12-14.6,6.3-21.94,9.35c-5.43,2.25-10.93,4.32-16.39,6.51c-6.31,2.54-12.59,5.12-18.89,7.68c-0.67,0.45-1.35,0.89-2.02,1.34c-0.67,0.22-1.34,0.45-2.02,0.67c-1.38,0.4-2.83,0.64-4.14,1.22c-7.63,3.34-15.29,6.31-23.61,7.87c-8.93,1.67-17.27,0.41-25.55-2.45c-5.85-2.02-11.58-4.41-17.36-6.63c-5.52-2.21-11.07-4.35-16.57-6.63c-15.13-6.28-30.25-12.61-45.37-18.92c-6.28-2.47-12.57-4.91-18.82-7.43c-13.92-5.59-27.82-11.22-41.72-16.83c-4.03-1.59-8.06-3.18-12.09-4.76c-0.49-0.4-0.98-0.79-1.47-1.19c-7.59-2.95-15.18-5.89-22.76-8.84c-5.83-2.27-11.65-4.56-17.47-6.85c-0.49-0.39-0.99-0.78-1.48-1.16c-1.97-0.47-3.94-0.94-5.91-1.41c-0.97-0.62-1.93-1.24-2.9-1.86c-0.55-0.25-1.1-0.49-1.65-0.74c-0.58-0.19-1.15-0.38-1.73-0.57c-0.54-0.25-1.09-0.5-1.63-0.76c-0.58-0.2-1.15-0.4-1.73-0.6c-3.02-1.3-6.05-2.59-9.07-3.89c-0.56-0.28-1.12-0.57-1.68-0.85c-5.32-2.58-10.77-5-13.34-10.93c-0.03-4.73-0.06-9.47-0.09-14.2c2.73-4.33,6.85-6.89,11.37-8.93c1.04-0.42,2.07-0.83,3.11-1.25c1.42-0.51,2.84-1.02,4.27-1.52c0.96-0.37,1.92-0.73,2.87-1.1c0.67-0.21,1.33-0.42,2-0.63c0.54-0.25,1.09-0.51,1.63-0.76c0.57-0.2,1.14-0.41,1.72-0.61c0.46-0.23,0.93-0.45,1.39-0.68c1.3-0.51,2.59-1.02,3.89-1.53c0.57-0.26,1.15-0.52,1.72-0.78c5.95-2.39,11.91-4.79,17.86-7.18c0.56-0.28,1.12-0.56,1.68-0.85c0.56-0.18,1.11-0.35,1.67-0.53c0.56-0.28,1.12-0.56,1.68-0.84c3.24-1.32,6.48-2.63,9.72-3.95c0.59-0.19,1.18-0.38,1.76-0.57c1.04-0.37,2.08-0.75,3.12-1.12c0.45-0.22,0.91-0.45,1.36-0.67c0.52-0.18,1.04-0.36,1.55-0.54c0.6-0.28,1.2-0.55,1.8-0.83c3.68-1.47,7.36-2.94,11.05-4.41c0.59-0.29,1.18-0.57,1.78-0.86c0.53-0.17,1.05-0.34,1.58-0.51c0.59-0.29,1.19-0.58,1.78-0.86c0.52-0.17,1.05-0.34,1.57-0.51c0.6-0.28,1.2-0.57,1.79-0.85c0.52-0.17,1.04-0.34,1.56-0.51c1.06-0.43,2.13-0.86,3.19-1.3c0.5-0.26,1-0.51,1.51-0.77c0.62-0.2,1.24-0.4,1.85-0.6c0.5-0.26,1-0.53,1.5-0.79c0.62-0.2,1.24-0.4,1.85-0.6c0.5-0.25,1-0.51,1.5-0.76c3.97-1.6,7.95-3.19,11.92-4.79c0.66-0.26,1.32-0.51,1.98-0.77c0.45-0.21,0.91-0.42,1.36-0.63c1.92-0.76,3.85-1.51,5.77-2.27c0.57-0.27,1.13-0.54,1.7-0.81c0.55-0.19,1.09-0.37,1.64-0.56c2.36-1,4.72-2,7.07-3c0.66-0.24,1.33-0.47,1.99-0.71c0.45-0.23,0.9-0.46,1.36-0.69c0.67-0.23,1.34-0.46,2-0.68c0.45-0.23,0.9-0.46,1.35-0.69c4.81-1.92,9.61-3.83,14.42-5.75c0.59-0.29,1.17-0.58,1.76-0.88c0.53-0.17,1.06-0.33,1.58-0.5c0.59-0.29,1.18-0.58,1.78-0.86c0.53-0.17,1.05-0.33,1.58-0.5c0.59-0.29,1.19-0.58,1.78-0.87c3.7-1.46,7.41-2.93,11.11-4.39c4.6-1.92,9.19-3.83,13.79-5.75c0.66-0.24,1.33-0.48,1.99-0.73c0.45-0.22,0.9-0.45,1.35-0.67c3.67-1.48,7.35-2.97,11.02-4.45c4.42-1.79,8.85-3.58,13.27-5.38c0.5-0.25,1-0.5,1.51-0.75c0.62-0.21,1.24-0.41,1.85-0.62c1.62-0.71,3.24-1.42,4.86-2.13c2.87-1.08,5.73-2.17,8.6-3.25c1.09-0.34,2.18-0.68,3.28-1.02c1.37-0.33,2.75-0.67,4.12-1c1.55-0.1,3.09-0.2,4.64-0.3c1.12,0.01,2.24,0.01,3.36,0.02c1.32,0.09,2.65,0.18,3.97,0.28c1.59,0.37,3.18,0.74,4.78,1.1c0.87,0.31,1.75,0.61,2.62,0.92c1.27,0.48,2.54,0.96,3.81,1.44c0.53,0.16,1.06,0.33,1.59,0.49c0.59,0.29,1.17,0.58,1.76,0.87c0.53,0.17,1.07,0.33,1.6,0.5c0.58,0.29,1.17,0.58,1.75,0.86c2.57,1.01,5.14,2.02,7.71,3.03c0.45,0.23,0.9,0.46,1.35,0.69c0.67,0.23,1.33,0.46,2,0.69c3.49,1.45,6.98,2.91,10.46,4.36c3.02,1.21,6.05,2.43,9.07,3.64c0.45,0.22,0.9,0.44,1.36,0.66c0.67,0.24,1.33,0.47,2,0.71c0.45,0.22,0.91,0.44,1.36,0.66c0.66,0.24,1.33,0.49,1.99,0.73c0.74,0.54,1.42,1.27,2.24,1.58c4.32,1.6,8.69,3.09,13.04,4.62c3.2,1.32,6.41,2.63,9.61,3.95c0.59,0.29,1.19,0.59,1.78,0.88c0.53,0.17,1.05,0.33,1.58,0.5c0.59,0.28,1.19,0.57,1.78,0.85c0.53,0.17,1.05,0.34,1.58,0.52c0.59,0.28,1.18,0.56,1.78,0.84c3.68,1.47,7.36,2.94,11.04,4.42c0.45,0.23,0.9,0.46,1.36,0.69c0.67,0.23,1.33,0.46,2,0.69c3.48,1.46,6.96,2.92,10.44,4.38c1.91,0.75,3.83,1.51,5.74,2.26c0.45,0.22,0.9,0.43,1.36,0.65c0.67,0.24,1.33,0.49,2,0.73c0.46,0.21,0.91,0.42,1.37,0.63c0.66,0.25,1.33,0.5,1.99,0.75c0.46,0.2,0.91,0.41,1.37,0.61c0.66,0.26,1.32,0.52,1.98,0.78c3.98,1.6,7.95,3.2,11.93,4.8c0.5,0.25,1,0.5,1.5,0.74c0.62,0.2,1.24,0.4,1.86,0.61c0.5,0.26,1,0.51,1.5,0.77c0.62,0.2,1.24,0.41,1.86,0.61c0.5,0.26,1,0.52,1.5,0.78c1.06,0.43,2.12,0.87,3.19,1.3c0.52,0.16,1.05,0.33,1.57,0.49c0.6,0.29,1.19,0.58,1.79,0.86c0.52,0.17,1.05,0.35,1.57,0.52c0.6,0.28,1.19,0.56,1.79,0.84c3.68,1.47,7.36,2.94,11.03,4.41c0.45,0.23,0.9,0.46,1.35,0.69c0.67,0.23,1.33,0.47,2,0.7c0.45,0.22,0.91,0.44,1.36,0.66c0.66,0.24,1.33,0.48,1.99,0.72c3.48,1.46,6.95,2.92,10.43,4.38c3.04,1.21,6.07,2.43,9.11,3.64c0.46,0.2,0.92,0.39,1.37,0.59c0.66,0.26,1.32,0.53,1.98,0.79c3.98,1.6,7.95,3.2,11.93,4.8c0.5,0.25,1,0.5,1.49,0.75c0.62,0.21,1.24,0.41,1.86,0.62c2.09,0.85,4.17,1.7,6.26,2.55c1.57,0.69,3.14,1.38,4.72,2.07c0.67,0.2,1.35,0.4,2.02,0.6c0.46,0.21,0.91,0.42,1.37,0.63c0.42,0.13,0.84,0.25,1.26,0.38c1.71,0.69,3.41,1.38,5.12,2.07c0.78,0.33,1.56,0.66,2.34,0.99c0.57,0.34,1.14,0.67,1.71,1.01c0.19-0.05,0.31,0.03,0.35,0.22c0.53,0.4,1.06,0.8,1.6,1.2C507.92,145.12,510.07,147.87,512.23,150.61z"/>
    <path class="st1" d="M265.83,468.97c-5.38,0-10.77,0-16.15,0c-0.64-0.44-1.23-1.09-1.94-1.3c-2.77-0.8-5.69-1.17-8.36-2.22c-10.42-4.1-20.76-8.43-31.14-12.62c-14.03-5.67-28.1-11.27-42.13-16.96c-20.4-8.27-40.78-16.59-61.17-24.87c-9.57-3.89-19.16-7.74-28.74-11.61c-9.78-3.96-19.61-7.83-29.34-11.92c-11.15-4.69-22.26-9.5-33.32-14.4c-4.78-2.12-7.91-5.99-9.06-11.02c-1-4.38-1.58-9.25,1.92-12.71c3.03-2.99,6.72-5.59,10.57-7.41c6.03-2.85,12.47-4.84,18.68-7.32c0.8-0.32,1.3-1.4,1.94-2.14c1.13,0.42,2.27,0.84,3.4,1.26c0.57,0.35,1.1,0.79,1.7,1.04c44.55,18.07,89.1,36.12,133.66,54.18c19.07,7.73,38.27,15.15,57.17,23.27c15.2,6.54,30.3,7.31,45.59,1.22c22.86-9.1,45.61-18.48,68.39-27.76c38.73-15.77,77.45-31.56,116.17-47.34c0.45-0.21,0.91-0.43,1.36-0.64c2.46-0.93,4.91-1.87,7.37-2.8c0.52-0.36,1.04-0.73,1.56-1.09c0.39-0.05,0.77-0.1,1.16-0.15c1.14-0.42,2.27-0.85,3.41-1.27c0.37,0.72,0.57,1.85,1.15,2.1c3.85,1.63,7.79,3.03,11.67,4.59c5.93,2.39,12.48,3.68,16.76,9.08c1.45,1.83,2.7,3.8,4.05,5.71c0,2.02,0,4.04,0,6.06c-0.44,0.42-1.19,0.79-1.26,1.26c-0.7,5-3.34,8.87-7.64,11.11c-6.18,3.22-12.61,6.01-19.04,8.71c-14.13,5.93-28.33,11.71-42.52,17.52c-10.3,4.22-20.62,8.39-30.94,12.57c-6.68,2.71-13.36,5.39-20.04,8.09c-9.79,3.96-19.59,7.9-29.37,11.88c-11.69,4.76-23.35,9.57-35.03,14.34c-10.71,4.37-21.39,8.81-32.15,13.05c-8.87,3.49-17.38,8.11-27.07,9.25C266.63,467.77,266.25,468.53,265.83,468.97z"/>
    <path class="st2" d="M478.54,332.39c-1.14,0.42-2.27,0.85-3.41,1.27c-0.61-0.68-1.09-1.66-1.85-1.99c-4.99-2.14-10.05-4.13-15.08-6.18c-11.39-4.64-22.79-9.24-34.14-13.96c-2.43-1.01-4.67-2.47-7-3.72c0.44-0.17,0.88-0.34,1.32-0.52c0.54-0.32,1.08-0.65,1.62-0.97c0.58-0.12,1.17-0.24,1.75-0.37c1.2-0.59,2.41-1.17,3.61-1.76c0.67-0.24,1.34-0.48,2.01-0.71c0.45-0.22,0.9-0.44,1.35-0.66c0.67-0.24,1.34-0.47,2.01-0.71c0.45-0.22,0.9-0.45,1.35-0.67c0.67-0.22,1.35-0.45,2.02-0.67c0.45-0.23,0.9-0.46,1.34-0.69c5.15-2.12,10.3-4.27,15.46-6.36c8.26-3.35,16.54-6.67,24.81-10c1.65-0.77,3.31-1.55,4.96-2.32c-0.21,0.69-0.41,1.39-0.6,2.02c7.21,2.87,14.24,5.56,21.18,8.46c4.19,1.76,7.51,4.64,9.52,8.83c0.46,0.89,0.91,1.79,1.37,2.68c0,1.35,0,2.69,0,4.04c-0.47,1.56-0.93,3.12-1.4,4.69c-0.05,0.18-0.08,0.36-0.08,0.55c-0.37,0.51-0.75,1.03-1.12,1.54c-1.76,2.09-3.11,4.92-5.34,6.13c-6.8,3.7-13.94,6.77-20.95,10.09c-0.54,0.33-1.09,0.65-1.63,0.98C480.61,331.74,479.58,332.06,478.54,332.39z"/>
    <path class="st3" d="M222.75,255.61c5.78,2.22,11.51,4.61,17.36,6.63c8.29,2.86,16.62,4.13,25.55,2.45c8.32-1.56,15.98-4.53,23.61-7.87c1.31-0.57,2.76-0.82,4.14-1.22c0.41,0.91,0.58,2.34,1.26,2.65c5.9,2.66,11.88,5.14,17.87,7.61c8.86,3.67,17.71,7.37,26.63,10.89c3.88,1.53,7.37,4.39,11.97,3.84c0.45-0.05,1.01,0.87,1.53,1.34c-6.74,2.87-13.49,5.74-20.23,8.6c-0.45,0.23-0.9,0.45-1.35,0.68c-0.62,0.05-1.25,0.1-1.87,0.15c-0.5,0.4-0.99,0.81-1.49,1.21c-0.63,0.04-1.25,0.09-1.88,0.13c-0.49,0.41-0.99,0.81-1.48,1.22c-2.87,0.94-5.74,1.88-8.61,2.83c-0.49,0.41-0.99,0.82-1.48,1.23c-2.66,0.92-5.32,1.85-7.98,2.77c-0.49,0.4-0.98,0.81-1.46,1.21c-0.63,0.05-1.27,0.09-1.9,0.14c-0.49,0.4-0.97,0.81-1.46,1.21c-0.63,0.05-1.26,0.09-1.9,0.14c-0.49,0.4-0.98,0.81-1.47,1.21c-1.29,0.29-2.58,0.57-3.86,0.86c-0.5,0.39-1.01,0.79-1.51,1.18c-0.67,0.24-1.34,0.47-2.01,0.71c-0.45,0.22-0.9,0.43-1.36,0.65c-4.04,1.58-8.07,3.16-12.11,4.73c-0.45,0.21-0.91,0.42-1.36,0.63c-0.84,0.06-1.69,0.11-2.53,0.17c-1.18,0.59-2.37,1.17-3.55,1.76c-0.89,0.04-1.77,0.07-2.66,0.11c-0.9,0.21-1.8,0.42-2.7,0.63c-0.44,0.01-0.89,0.02-1.33,0.04c-0.91,0.19-1.81,0.38-2.72,0.57c-2,0-3.99,0-5.99,0.01c-2.25-0.42-4.5-0.84-6.75-1.25c-1.34-0.24-2.68-0.47-4.02-0.71c-0.45-0.21-0.91-0.42-1.36-0.62c-2.02-0.68-4.03-1.36-6.05-2.04c-0.45-0.22-0.9-0.44-1.36-0.66c-0.67-0.23-1.34-0.46-2.01-0.7c-0.45-0.22-0.9-0.43-1.36-0.65c-0.67-0.23-1.34-0.47-2.01-0.7c-0.5-0.39-1.01-0.78-1.51-1.17c-5.1-1.87-10.2-3.74-15.31-5.61c-0.5-0.38-1-0.76-1.5-1.14c-0.65-0.15-1.34-0.21-1.95-0.46c-11.21-4.57-22.4-9.16-33.6-13.75c-0.45-0.23-0.9-0.46-1.34-0.69c-0.67-0.22-1.35-0.44-2.02-0.66c-0.45-0.22-0.9-0.45-1.35-0.67c-1.79-0.68-3.59-1.35-5.38-2.03c-0.14-0.75-0.27-1.5-0.43-2.35c1.16-0.28,2.28-0.4,3.28-0.8c9.73-3.92,19.45-7.86,29.15-11.84c4.64-1.9,9.24-3.92,13.87-5.86c3.38-1.41,6.84-2.68,10.15-4.24C222.21,257.81,222.37,256.47,222.75,255.61z"/>
    <path class="st4" d="M222.75,255.61c-0.39,0.86-0.55,2.2-1.2,2.51c-3.32,1.56-6.77,2.83-10.15,4.24c-4.63,1.94-9.22,3.96-13.87,5.86c-9.7,3.98-19.42,7.92-29.15,11.84c-1,0.4-2.12,0.52-3.28,0.8c0.15,0.85,0.29,1.6,0.43,2.35c-1.56-0.47-3.12-0.94-4.68-1.41c-0.46-0.2-0.92-0.4-1.38-0.6c-0.45-0.22-0.9-0.44-1.35-0.66c-0.67-0.23-1.35-0.46-2.02-0.68c-0.45-0.23-0.9-0.45-1.34-0.68c-1.36-0.48-2.74-0.91-4.07-1.46c-16.36-6.72-32.72-13.45-49.08-20.18c0.33-0.62,0.51-1.57,1.01-1.79c2.85-1.25,5.79-2.3,8.67-3.48c15.9-6.49,31.8-12.96,47.65-19.56c0.84-0.35,1.25-1.74,1.87-2.64c15.12,6.31,30.23,12.65,45.37,18.92C211.68,251.25,217.23,253.4,222.75,255.61z"/>
    <path class="st4" d="M352.68,281.94c-0.51-0.47-1.08-1.4-1.53-1.34c-4.6,0.54-8.08-2.31-11.97-3.84c-8.92-3.51-17.77-7.22-26.63-10.89c-5.98-2.48-11.96-4.96-17.87-7.61c-0.68-0.31-0.86-1.74-1.26-2.65c0.67-0.22,1.34-0.45,2.02-0.67c0.67-0.45,1.35-0.89,2.02-1.34c6.3-2.56,12.58-5.15,18.89-7.68c5.45-2.19,10.96-4.26,16.39-6.51c7.34-3.05,14.63-6.23,21.94-9.35c0.72,0.93,1.24,2.3,2.19,2.72c5.36,2.41,10.81,4.63,16.26,6.85c13.47,5.49,26.95,10.96,40.46,16.44c-0.6,0.77-1.16,1.48-1.72,2.19c-2.91,1.13-5.83,2.27-8.74,3.4c-0.45,0.22-0.9,0.45-1.34,0.67c-15.5,6.47-31.01,12.93-46.51,19.4C354.41,281.8,353.54,281.87,352.68,281.94z"/>
    <path class="st5" d="M160.82,230.05c-0.61,0.9-1.02,2.29-1.87,2.64c-15.85,6.59-31.75,13.07-47.65,19.56c-2.88,1.18-5.82,2.22-8.67,3.48c-0.5,0.22-0.68,1.18-1.01,1.79c-1.11-0.43-2.22-0.87-3.33-1.3c-9.88-4.04-19.76-8.08-29.63-12.12c-0.53-0.35-1.06-0.69-1.6-1.04c-0.59-0.11-1.17-0.22-1.76-0.32c-1.65-0.79-3.31-1.59-4.96-2.38c-0.59-0.11-1.17-0.22-1.76-0.33c-0.54-0.34-1.07-0.67-1.61-1.01c-0.58-0.12-1.16-0.24-1.75-0.36c-1.19-0.59-2.37-1.18-3.56-1.78c-0.6-0.11-1.2-0.23-1.8-0.34c-1.64-0.79-3.28-1.57-4.93-2.36c-1.31-0.48-2.62-0.96-3.93-1.44c0.22-3.5,3.63-3.02,5.5-3.81c16.41-6.9,32.99-13.41,49.48-20.14c1.57-0.64,2.86-1.99,4.28-3.01c13.91,5.61,27.81,11.24,41.72,16.83C148.26,225.14,154.54,227.58,160.82,230.05z"/>
    <path class="st5" d="M411.87,258.26c0.56-0.71,1.12-1.42,1.72-2.19c-13.51-5.49-26.99-10.95-40.46-16.44c-5.44-2.22-10.89-4.44-16.26-6.85c-0.95-0.43-1.47-1.79-2.19-2.72c5.06-1.89,10.15-3.69,15.17-5.69c11.29-4.52,22.55-9.12,33.8-13.75c4.15-1.71,8.22-3.61,12.33-5.43c0.53,0.89,0.85,2.24,1.63,2.59c4.82,2.18,9.73,4.18,14.64,6.17c13.86,5.61,27.73,11.17,41.57,16.83c0.59,0.24,0.87,1.24,1.29,1.88c-0.38,0.07-0.76,0.15-1.15,0.22c-2.31,1.04-4.63,2.07-6.94,3.11c-0.58,0.12-1.16,0.24-1.74,0.36c-0.54,0.34-1.08,0.67-1.61,1.01c-0.83,0.3-1.66,0.59-2.48,0.91c-7.4,2.92-14.8,5.85-22.2,8.78c-0.53,0.34-1.06,0.69-1.59,1.03c-0.59,0.11-1.18,0.21-1.77,0.32c-0.53,0.35-1.06,0.7-1.59,1.05c-0.59,0.1-1.18,0.2-1.77,0.3c-0.53,0.35-1.06,0.7-1.59,1.06c-4.48,1.82-8.95,3.65-13.43,5.47C415.46,256.93,413.66,257.59,411.87,258.26z"/>
    <path class="st6" d="M475.1,232.65c-0.42-0.64-0.7-1.64-1.29-1.88c-13.84-5.66-27.72-11.22-41.57-16.83c-4.91-1.99-9.82-3.99-14.64-6.17c-0.77-0.35-1.1-1.7-1.63-2.59c14.38-5.75,28.75-11.51,43.13-17.26c5.9-2.36,11.8-4.71,17.7-7.07c3.1,1.3,6.19,2.59,9.29,3.89c0.82,0.31,1.64,0.63,2.47,0.94c0.46,0.23,0.92,0.47,1.39,0.7c0.39,0.12,0.78,0.24,1.16,0.37c3.3,1.28,6.59,2.56,9.89,3.84c0.35,0.15,0.69,0.3,1.04,0.45c0.95,0.61,1.9,1.23,2.86,1.84c1.39,1.33,2.79,2.66,4.18,3.99c2.94,6.3,1.64,12.41-0.81,18.46c-1.35,1.34-2.7,2.68-4.06,4.03c-0.52,0.36-1.03,0.73-1.55,1.09c-0.14,0.12-0.29,0.21-0.47,0.26c-1.96,0.75-3.98,1.36-5.86,2.27c-2.66,1.28-5.21,2.78-7.81,4.18c-3.55,1.4-7.11,2.81-10.66,4.21C476.93,231.81,476.02,232.23,475.1,232.65z"/>
    <path class="st7" d="M100.27,205.79c-1.42,1.02-2.71,2.37-4.28,3.01c-16.49,6.73-33.06,13.24-49.48,20.14c-1.87,0.79-5.27,0.3-5.5,3.81c-0.81-0.25-1.61-0.5-2.42-0.76c-0.72-0.27-1.44-0.54-2.17-0.81c-2.68-1.19-5.36-2.39-8.05-3.58c-4.77-2.36-9.57-4.67-14.31-7.09c-7.22-3.68-10.95-11.15-9.26-19.04c0.37-1.76,1.66-3.35,2.67-4.93c0.77-1.19,1.78-2.22,2.69-3.33c0.12-0.15,0.27-0.25,0.45-0.31c0.53-0.13,1.08-0.21,1.57-0.41c8.97-3.63,17.93-7.28,26.9-10.92c1.97,0.47,3.94,0.94,5.91,1.41c0.49,0.39,0.99,0.78,1.48,1.17c5.82,2.28,11.64,4.57,17.47,6.85c7.58,2.96,15.18,5.9,22.76,8.84c0.49,0.4,0.98,0.79,1.47,1.19C92.21,202.62,96.24,204.2,100.27,205.79z"/>
    <path class="st8" d="M417.07,307.81c2.33,1.25,4.57,2.71,7,3.72c11.35,4.72,22.75,9.32,34.14,13.96c5.03,2.05,10.09,4.04,15.08,6.18c0.76,0.33,1.24,1.31,1.85,1.99c-0.39,0.05-0.78,0.1-1.16,0.15c-0.52,0.36-1.04,0.73-1.56,1.09c-2.46,0.93-4.91,1.87-7.37,2.8c-0.45,0.21-0.91,0.43-1.36,0.64c-38.72,15.78-77.44,31.57-116.17,47.34c-22.79,9.28-45.54,18.65-68.39,27.76c-15.29,6.09-30.39,5.32-45.59-1.22c-18.9-8.13-38.1-15.55-57.17-23.27c-44.56-18.05-89.11-36.11-133.66-54.18c-0.61-0.25-1.14-0.69-1.7-1.04c0.71-0.81,1.26-2,2.15-2.37c6.11-2.55,12.32-4.89,18.46-7.38c11.6-4.72,23.19-9.47,34.74-14.31c0.79-0.33,1.26-1.45,1.88-2.2c1.11,0.26,2.22,0.52,3.33,0.78l0.2,0.08l0.21-0.05c0.77,0.41,1.55,0.82,2.32,1.23c1.58,0.64,3.16,1.27,4.74,1.91c0.44,0.22,0.89,0.44,1.33,0.67c0.68,0.23,1.35,0.46,2.03,0.7c0.45,0.22,0.89,0.43,1.34,0.65c0.68,0.23,1.35,0.47,2.03,0.7c0.45,0.22,0.89,0.44,1.34,0.67c0.68,0.23,1.35,0.46,2.03,0.69c0.45,0.23,0.89,0.45,1.34,0.68c0.67,0.23,1.35,0.46,2.02,0.68c0.45,0.23,0.89,0.46,1.34,0.69c4.85,1.84,9.7,3.68,14.55,5.52c0.54,0.37,1.08,0.74,1.61,1.11c0.58,0.08,1.17,0.16,1.75,0.24c0.54,0.37,1.07,0.74,1.61,1.11c0.59,0.08,1.17,0.16,1.76,0.24c0.54,0.37,1.07,0.75,1.61,1.12c0.58,0.08,1.17,0.15,1.75,0.23c0.54,0.37,1.08,0.75,1.62,1.12c3.58,1.4,7.16,2.79,10.74,4.19c0.45,0.21,0.91,0.42,1.36,0.63c3.07,1.15,6.15,2.3,9.22,3.45c1.19,0.61,2.39,1.22,3.58,1.83c0.68,0.24,1.35,0.47,2.03,0.71c0.44,0.22,0.89,0.44,1.33,0.66c0.68,0.23,1.35,0.46,2.03,0.69c0.44,0.22,0.89,0.44,1.33,0.66c0.68,0.23,1.35,0.46,2.03,0.69c0.45,0.22,0.89,0.44,1.34,0.66c0.68,0.23,1.35,0.46,2.03,0.69c0.45,0.23,0.89,0.45,1.34,0.68c0.68,0.22,1.35,0.45,2.03,0.67c0.45,0.23,0.89,0.46,1.34,0.69c4.85,1.84,9.7,3.68,14.56,5.52c0.54,0.37,1.07,0.74,1.61,1.12c0.59,0.08,1.17,0.15,1.76,0.23c0.54,0.37,1.07,0.74,1.61,1.11c0.58,0.08,1.17,0.16,1.75,0.23c1.21,0.61,2.42,1.22,3.63,1.83c2.91,1.15,5.82,2.31,8.73,3.46c0.45,0.21,0.91,0.42,1.36,0.64c0.67,0.24,1.33,0.48,2,0.73c0.45,0.22,0.91,0.43,1.36,0.65c1.95,0.7,3.9,1.4,5.85,2.1c0.52,0.35,1.05,0.7,1.57,1.05c0.44,0.07,0.88,0.15,1.32,0.22c0.45,0.21,0.91,0.41,1.36,0.62c0.89,0.24,1.78,0.48,2.68,0.73c0.46,0.18,0.91,0.36,1.37,0.54c1.34,0.25,2.69,0.5,4.03,0.75c2.25,0.36,4.49,0.72,6.74,1.08c1.34,0,2.67,0,4.01,0c2.69-0.37,5.38-0.75,8.07-1.12c0.67-0.06,1.35-0.12,2.02-0.18c1.13-0.36,2.26-0.72,3.4-1.08c1.11-0.28,2.22-0.57,3.34-0.85c0.45-0.19,0.9-0.37,1.35-0.56c0.68-0.23,1.35-0.45,2.03-0.68c0.45-0.21,0.9-0.43,1.35-0.64c1.79-0.7,3.58-1.39,5.38-2.09c3.45-1.51,6.89-3.02,10.34-4.53c1.04-0.31,2.08-0.62,3.12-0.94c0.56-0.35,1.12-0.69,1.67-1.04c1.68-0.56,3.37-1.12,5.05-1.68c0.55-0.34,1.11-0.68,1.66-1.02c1.69-0.57,3.38-1.14,5.07-1.7c0.9-0.4,1.79-0.8,2.69-1.2c0.68-0.23,1.36-0.46,2.04-0.68c0.55-0.38,1.09-0.75,1.64-1.13c1.6-0.45,3.26-0.75,4.79-1.37c5.89-2.38,11.73-4.9,17.62-7.3c18.9-7.72,37.82-15.4,56.73-23.1c0.45-0.23,0.9-0.46,1.34-0.69c0.67-0.23,1.35-0.46,2.02-0.69c0.45-0.22,0.9-0.44,1.35-0.66c0.67-0.23,1.35-0.47,2.02-0.7c0.56-0.39,1.12-0.77,1.67-1.16c1.68-0.52,3.37-1.04,5.05-1.56C413.61,308.87,415.34,308.34,417.07,307.81z"/>
    <path class="st2" d="M98.23,307.46c-0.62,0.75-1.08,1.87-1.88,2.2c-11.55,4.84-23.14,9.59-34.74,14.31c-6.14,2.5-12.35,4.83-18.46,7.38c-0.89,0.37-1.44,1.56-2.15,2.37c-1.13-0.42-2.27-0.84-3.4-1.26c-8.62-3.89-17.27-7.74-25.85-11.7c-8.32-3.84-12.32-20.24-0.97-26.74c5.29-3.02,11.15-5.05,16.77-7.47c2.25-0.97,4.61-1.71,6.82-2.75c0.61-0.28,0.87-1.29,1.29-1.97c1.56,0.7,3.12,1.4,4.69,2.1c0.94,0.37,1.87,0.74,2.81,1.11c0.59,0.12,1.18,0.23,1.77,0.35c1.65,0.78,3.31,1.56,4.96,2.34c2.63,0.98,5.26,1.97,7.9,2.95c0.52,0.33,1.05,0.65,1.57,0.98c0.6,0.13,1.19,0.25,1.79,0.38c0.15,0.29,0.23,0.76,0.46,0.85c6.62,2.58,13.26,5.13,19.9,7.68C87.07,302.88,92.65,305.17,98.23,307.46z"/>
    <path class="st9" d="M40.34,283.95c-1.56-0.7-3.12-1.4-4.69-2.1c-2.59-1.01-5.19-2.01-7.78-3.02c-3.96-1.79-7.92-3.58-11.87-5.37c-0.36-0.15-0.72-0.31-1.08-0.46c-0.97-0.57-1.94-1.15-2.91-1.72c-0.13-0.14-0.29-0.23-0.47-0.28c-0.51-0.38-1.02-0.76-1.53-1.14c-0.92-0.91-1.85-1.83-2.77-2.74c-2.97-5.61-3.57-11.49-2-17.61c0.13-0.14,0.2-0.31,0.22-0.49c1.82-1.79,3.64-3.57,5.47-5.36c1.02-0.61,2.04-1.22,3.07-1.83c3.17-1.28,6.34-2.57,9.52-3.85c0.41-0.11,0.82-0.21,1.23-0.32c4.62-1.89,9.24-3.77,13.87-5.66c0.81,0.25,1.61,0.5,2.42,0.76c1.31,0.48,2.62,0.96,3.93,1.44c1.64,0.79,3.28,1.57,4.93,2.36c0.6,0.11,1.2,0.23,1.8,0.34c1.19,0.59,2.37,1.18,3.56,1.78c0.58,0.12,1.16,0.24,1.75,0.36c0.54,0.34,1.07,0.67,1.61,1.01c0.59,0.11,1.17,0.22,1.76,0.33c1.65,0.79,3.31,1.59,4.96,2.38c0.59,0.11,1.17,0.22,1.76,0.32c0.53,0.35,1.06,0.7,1.6,1.04c9.88,4.04,19.76,8.08,29.63,12.12c-1.54,1.03-2.95,2.34-4.63,3.04c-11.09,4.68-22.24,9.23-33.37,13.83c-6.26,2.59-12.51,5.21-18.77,7.81c-1.09,0.45-2.74,0.63-1.16,2.38C40.36,283.51,40.35,283.73,40.34,283.95z"/>
    <path class="st10" d="M417.07,307.81c-1.73,0.53-3.46,1.06-5.2,1.59c0.56-0.71,1.12-1.42,1.7-2.16c-6.19-2.52-12.35-5.01-18.5-7.54c-12.67-5.19-25.35-10.38-37.98-15.66c-0.79-0.33-1.22-1.52-1.82-2.3c15.5-6.47,31.01-12.93,46.51-19.4c0.45-0.22,0.9-0.45,1.34-0.67c2.91-1.13,5.83-2.27,8.74-3.4c1.79-0.67,3.58-1.33,5.38-2c0.82,0.85,1.49,2.06,2.49,2.48c6.3,2.64,12.69,5.09,19.03,7.64c11.23,4.51,22.48,9,33.66,13.65c1.46,0.61,4.04,0.84,3.31,3.69c-8.27,3.33-16.55,6.65-24.81,10c-5.16,2.09-10.31,4.24-15.46,6.36c-0.45,0.23-0.9,0.46-1.34,0.69c-0.67,0.22-1.35,0.45-2.02,0.67c-0.45,0.22-0.9,0.45-1.35,0.67c-0.67,0.24-1.34,0.47-2.01,0.71c-0.45,0.22-0.9,0.44-1.35,0.66c-0.67,0.24-1.34,0.48-2.01,0.71c-1.2,0.59-2.41,1.17-3.61,1.76c-0.58,0.12-1.17,0.24-1.75,0.36c-0.54,0.32-1.08,0.65-1.62,0.98C417.95,307.47,417.51,307.64,417.07,307.81z"/>
    <path class="st9" d="M475.73,283.72c0.73-2.85-1.85-3.08-3.31-3.69c-11.17-4.66-22.42-9.14-33.66-13.65c-6.34-2.55-12.73-4.99-19.03-7.64c-1-0.42-1.67-1.63-2.49-2.48c4.48-1.82,8.95-3.65,13.43-5.47c0.53-0.35,1.06-0.7,1.59-1.06c0.59-0.1,1.18-0.2,1.77-0.3c0.53-0.35,1.06-0.7,1.59-1.05c0.59-0.11,1.18-0.21,1.77-0.31c0.53-0.34,1.06-0.69,1.59-1.03c7.4-2.93,14.8-5.86,22.2-8.78c0.82-0.32,1.65-0.61,2.48-0.91c0.54-0.34,1.08-0.67,1.61-1.01c0.58-0.12,1.16-0.24,1.74-0.36c2.31-1.04,4.63-2.07,6.94-3.11c0.38-0.07,0.76-0.15,1.15-0.22c0.91-0.42,1.83-0.85,2.74-1.27c0.84,0.75,1.55,1.8,2.53,2.2c6.08,2.48,12.26,4.7,18.32,7.24c4.71,1.97,9.44,4.09,11.57,9.33c2.03,8.18-0.25,15.04-6.34,20.73c-0.16,0.08-0.31,0.17-0.46,0.28c-1.23,0.74-2.45,1.48-3.67,2.22c-6.37,2.67-12.73,5.35-19.1,8.02C479.04,282.17,477.38,282.95,475.73,283.72z"/>
    <path class="st11" d="M355.28,281.73c0.6,0.79,1.03,1.97,1.82,2.3c12.63,5.29,25.31,10.47,37.98,15.66c6.15,2.52,12.31,5.02,18.5,7.54c-0.58,0.74-1.14,1.45-1.7,2.16c-1.68,0.52-3.37,1.04-5.06,1.56c-0.56,0.39-1.11,0.77-1.67,1.16c-0.67,0.23-1.35,0.47-2.02,0.7c-0.45,0.22-0.9,0.44-1.35,0.66c-0.67,0.23-1.35,0.46-2.02,0.69c-0.45,0.23-0.9,0.46-1.34,0.69c-18.91,7.7-37.82,15.38-56.73,23.1c-5.88,2.4-11.72,4.92-17.62,7.3c-1.53,0.62-3.19,0.92-4.79,1.36c-0.55,0.38-1.09,0.75-1.64,1.13c-0.68,0.23-1.36,0.46-2.04,0.68c-0.9,0.4-1.79,0.8-2.69,1.2c-1.69,0.57-3.38,1.14-5.07,1.7c-0.55,0.34-1.11,0.68-1.66,1.02c-1.68,0.56-3.37,1.12-5.06,1.68c-0.56,0.35-1.12,0.69-1.67,1.04c-1.04,0.31-2.08,0.62-3.12,0.94c-3.45,1.51-6.89,3.02-10.34,4.53c-1.79,0.7-3.58,1.39-5.38,2.09c-0.45,0.21-0.9,0.43-1.35,0.64c-0.68,0.23-1.35,0.45-2.03,0.68c-0.45,0.19-0.9,0.37-1.35,0.56c-1.11,0.28-2.22,0.57-3.34,0.85c-1.13,0.36-2.26,0.72-3.4,1.08c-0.67,0.06-1.35,0.12-2.02,0.18c-2.69,0.37-5.38,0.75-8.07,1.12c-1.34,0-2.67,0-4.01,0c-2.25-0.36-4.49-0.72-6.74-1.08c-1.34-0.25-2.69-0.5-4.03-0.75c-0.46-0.18-0.91-0.36-1.37-0.54c-0.89-0.24-1.78-0.48-2.68-0.73c-0.45-0.21-0.91-0.41-1.36-0.62c-0.44-0.07-0.88-0.15-1.32-0.22c-0.52-0.35-1.05-0.7-1.57-1.06c-1.95-0.7-3.9-1.4-5.85-2.1c-0.45-0.22-0.91-0.43-1.36-0.65c-0.67-0.24-1.33-0.48-2-0.73c-0.45-0.21-0.91-0.42-1.36-0.64c-2.91-1.15-5.82-2.31-8.73-3.46c-1.21-0.61-2.42-1.22-3.63-1.83c-0.58-0.08-1.17-0.16-1.75-0.23c-0.54-0.37-1.07-0.74-1.61-1.11c-0.59-0.08-1.17-0.15-1.76-0.23c-0.54-0.37-1.07-0.74-1.61-1.12c-4.85-1.84-9.7-3.68-14.56-5.52c-0.45-0.23-0.89-0.46-1.34-0.69c-0.68-0.22-1.35-0.45-2.03-0.67c-0.45-0.23-0.89-0.45-1.34-0.68c-0.68-0.23-1.35-0.46-2.03-0.69c-0.45-0.22-0.89-0.44-1.34-0.66c-0.68-0.23-1.35-0.46-2.03-0.69c-0.44-0.22-0.89-0.44-1.33-0.66c-0.68-0.23-1.35-0.46-2.03-0.69c-0.44-0.22-0.89-0.44-1.33-0.66c-0.68-0.24-1.35-0.47-2.03-0.71c-1.19-0.61-2.39-1.22-3.58-1.83c-3.07-1.15-6.15-2.3-9.22-3.45c-0.45-0.21-0.91-0.42-1.36-0.63c-3.58-1.4-7.16-2.79-10.74-4.19c-0.54-0.37-1.08-0.75-1.62-1.12c-0.58-0.08-1.17-0.15-1.75-0.23c-0.54-0.37-1.07-0.75-1.61-1.12c-0.59-0.08-1.17-0.16-1.76-0.23c-0.54-0.37-1.07-0.74-1.61-1.11c-0.58-0.08-1.17-0.16-1.75-0.24c-0.54-0.37-1.08-0.74-1.61-1.11c-4.85-1.84-9.7-3.68-14.55-5.52c-0.45-0.23-0.89-0.46-1.34-0.69c-0.67-0.23-1.35-0.46-2.02-0.68c-0.45-0.23-0.89-0.45-1.34-0.68c-0.68-0.23-1.35-0.46-2.03-0.69c-0.45-0.22-0.89-0.44-1.34-0.67c-0.68-0.23-1.35-0.47-2.03-0.7c-0.45-0.22-0.89-0.43-1.34-0.65c-0.68-0.23-1.35-0.46-2.03-0.7c-0.44-0.22-0.89-0.44-1.33-0.67c-1.58-0.64-3.16-1.27-4.74-1.91c-0.77-0.41-1.55-0.82-2.32-1.23l-0.21,0.05c0,0-0.2-0.08-0.2-0.08c0.5-0.49,0.9-1.19,1.5-1.45c3.16-1.35,6.38-2.58,9.57-3.87c13.54-5.47,27.1-10.88,40.58-16.49c2.72-1.13,5.11-3.07,7.66-4.64c1.56,0.47,3.12,0.94,4.68,1.41c1.79,0.68,3.59,1.35,5.38,2.03c0.45,0.22,0.9,0.45,1.35,0.67c0.67,0.22,1.35,0.44,2.02,0.66c0.45,0.23,0.9,0.46,1.34,0.69c11.2,4.59,22.4,9.18,33.6,13.75c0.61,0.25,1.3,0.31,1.95,0.46c0.5,0.38,1,0.76,1.5,1.14c5.1,1.87,10.2,3.74,15.31,5.61c0.5,0.39,1.01,0.78,1.51,1.17c0.67,0.23,1.34,0.47,2.01,0.7c0.45,0.22,0.9,0.43,1.36,0.65c0.67,0.23,1.34,0.46,2.01,0.7c0.45,0.22,0.9,0.44,1.36,0.66c2.02,0.68,4.03,1.36,6.05,2.04c0.45,0.21,0.91,0.42,1.36,0.62c1.34,0.24,2.68,0.47,4.02,0.71c2.25,0.42,4.5,0.84,6.75,1.25c2,0,3.99,0,5.99,0c0.91-0.19,1.81-0.38,2.72-0.57c0.44-0.01,0.89-0.02,1.33-0.04c0.9-0.21,1.8-0.42,2.7-0.64c0.89-0.04,1.77-0.07,2.66-0.11c1.18-0.59,2.36-1.17,3.55-1.76c0.84-0.06,1.69-0.11,2.53-0.17c0.45-0.21,0.91-0.42,1.36-0.63c4.04-1.58,8.07-3.16,12.11-4.73c0.45-0.22,0.9-0.43,1.36-0.65c0.67-0.24,1.34-0.47,2.01-0.71c0.5-0.39,1.01-0.79,1.51-1.18c1.29-0.29,2.58-0.57,3.86-0.86c0.49-0.4,0.98-0.81,1.47-1.21c0.63-0.05,1.26-0.09,1.9-0.14c0.49-0.4,0.97-0.81,1.46-1.21c0.63-0.05,1.27-0.09,1.9-0.14c0.49-0.4,0.98-0.81,1.46-1.21c2.66-0.92,5.32-1.85,7.98-2.77c0.49-0.41,0.99-0.82,1.48-1.23c2.87-0.94,5.74-1.88,8.61-2.83c0.49-0.41,0.99-0.81,1.48-1.22c0.63-0.04,1.25-0.09,1.88-0.13c0.5-0.4,0.99-0.81,1.49-1.21c0.62-0.05,1.25-0.1,1.87-0.15c0.45-0.23,0.9-0.45,1.35-0.68c6.74-2.87,13.49-5.74,20.23-8.6C353.54,281.87,354.41,281.8,355.28,281.73z"/>
    <path class="st12" d="M160.86,281.79c-2.54,1.57-4.93,3.51-7.66,4.64c-13.48,5.61-27.04,11.02-40.58,16.49c-3.19,1.29-6.41,2.52-9.57,3.87c-0.6,0.25-1,0.95-1.5,1.45c-1.11-0.26-2.22-0.52-3.33-0.78c-5.58-2.29-11.16-4.58-16.74-6.87c-0.15-0.29-0.22-0.77-0.45-0.86c-6.63-2.58-13.27-5.13-19.91-7.68c-0.6-0.13-1.19-0.25-1.79-0.38c-0.52-0.33-1.05-0.65-1.57-0.98c-2.63-0.98-5.26-1.97-7.9-2.95c-1.65-0.78-3.31-1.56-4.96-2.34c-0.59-0.12-1.18-0.23-1.77-0.35c-0.93-0.59-1.86-1.17-2.78-1.76c-1.58-1.75,0.07-1.93,1.16-2.38c6.26-2.6,12.51-5.22,18.77-7.81c11.13-4.6,22.28-9.15,33.37-13.83c1.67-0.71,3.09-2.01,4.63-3.04c1.11,0.43,2.22,0.87,3.33,1.3c16.36,6.73,32.72,13.47,49.08,20.18c1.33,0.55,2.71,0.98,4.07,1.46c0.45,0.23,0.9,0.45,1.34,0.68c0.67,0.23,1.34,0.46,2.02,0.68c0.45,0.22,0.9,0.44,1.35,0.66C159.94,281.39,160.4,281.59,160.86,281.79z"/>
  </g>
</svg>
